<svg xmlns="http://www.w3.org/2000/svg" xmlns:xlink="http://www.w3.org/1999/xlink" width="500" zoomAndPan="magnify" viewBox="0 0 375 374.999991" height="500" preserveAspectRatio="xMidYMid meet" version="1.0"><defs><g/><clipPath id="f20f607732"><rect x="0" width="223" y="0" height="83"/></clipPath></defs><g transform="matrix(1, 0, 0, 1, 84, 165)"><g clip-path="url(#f20f607732)"><g fill="#ffffff" fill-opacity="1"><g transform="translate(0.386271, 61.027662)"><g><path d="M 17.609375 -32.390625 C 20.367188 -32.390625 22.785156 -31.785156 24.859375 -30.578125 C 26.929688 -29.378906 28.472656 -27.867188 29.484375 -26.046875 L 29.484375 -31.859375 L 34.828125 -31.859375 L 34.828125 0.703125 C 34.828125 3.609375 34.207031 6.191406 32.96875 8.453125 C 31.726562 10.722656 29.953125 12.5 27.640625 13.78125 C 25.335938 15.0625 22.65625 15.703125 19.59375 15.703125 C 15.40625 15.703125 11.914062 14.710938 9.125 12.734375 C 6.332031 10.753906 4.6875 8.0625 4.1875 4.65625 L 9.421875 4.65625 C 10.003906 6.59375 11.203125 8.148438 13.015625 9.328125 C 14.835938 10.515625 17.03125 11.109375 19.59375 11.109375 C 22.5 11.109375 24.875 10.195312 26.71875 8.375 C 28.5625 6.550781 29.484375 3.992188 29.484375 0.703125 L 29.484375 -5.984375 C 28.429688 -4.128906 26.878906 -2.582031 24.828125 -1.34375 C 22.773438 -0.101562 20.367188 0.515625 17.609375 0.515625 C 14.785156 0.515625 12.21875 -0.175781 9.90625 -1.5625 C 7.601562 -2.957031 5.789062 -4.914062 4.46875 -7.4375 C 3.15625 -9.957031 2.5 -12.828125 2.5 -16.046875 C 2.5 -19.304688 3.15625 -22.164062 4.46875 -24.625 C 5.789062 -27.082031 7.601562 -28.988281 9.90625 -30.34375 C 12.21875 -31.707031 14.785156 -32.390625 17.609375 -32.390625 Z M 29.484375 -15.984375 C 29.484375 -18.390625 28.992188 -20.484375 28.015625 -22.265625 C 27.046875 -24.046875 25.738281 -25.410156 24.09375 -26.359375 C 22.445312 -27.316406 20.632812 -27.796875 18.65625 -27.796875 C 16.6875 -27.796875 14.882812 -27.328125 13.25 -26.390625 C 11.625 -25.460938 10.328125 -24.109375 9.359375 -22.328125 C 8.390625 -20.546875 7.90625 -18.453125 7.90625 -16.046875 C 7.90625 -13.609375 8.390625 -11.488281 9.359375 -9.6875 C 10.328125 -7.882812 11.625 -6.503906 13.25 -5.546875 C 14.882812 -4.597656 16.6875 -4.125 18.65625 -4.125 C 20.632812 -4.125 22.445312 -4.597656 24.09375 -5.546875 C 25.738281 -6.503906 27.046875 -7.882812 28.015625 -9.6875 C 28.992188 -11.488281 29.484375 -13.585938 29.484375 -15.984375 Z M 29.484375 -15.984375 "/></g></g></g><g fill="#ffffff" fill-opacity="1"><g transform="translate(35.549689, 61.027662)"><g><path d="M 18.375 0.515625 C 15.382812 0.515625 12.675781 -0.160156 10.25 -1.515625 C 7.832031 -2.867188 5.9375 -4.796875 4.5625 -7.296875 C 3.1875 -9.796875 2.5 -12.691406 2.5 -15.984375 C 2.5 -19.242188 3.207031 -22.125 4.625 -24.625 C 6.039062 -27.125 7.96875 -29.039062 10.40625 -30.375 C 12.84375 -31.71875 15.578125 -32.390625 18.609375 -32.390625 C 21.628906 -32.390625 24.359375 -31.71875 26.796875 -30.375 C 29.242188 -29.039062 31.171875 -27.132812 32.578125 -24.65625 C 33.992188 -22.175781 34.703125 -19.285156 34.703125 -15.984375 C 34.703125 -12.691406 33.972656 -9.796875 32.515625 -7.296875 C 31.066406 -4.796875 29.101562 -2.867188 26.625 -1.515625 C 24.144531 -0.160156 21.394531 0.515625 18.375 0.515625 Z M 18.375 -4.125 C 20.269531 -4.125 22.050781 -4.566406 23.71875 -5.453125 C 25.382812 -6.347656 26.726562 -7.6875 27.75 -9.46875 C 28.78125 -11.257812 29.296875 -13.429688 29.296875 -15.984375 C 29.296875 -18.546875 28.789062 -20.71875 27.78125 -22.5 C 26.78125 -24.28125 25.460938 -25.609375 23.828125 -26.484375 C 22.203125 -27.359375 20.441406 -27.796875 18.546875 -27.796875 C 16.609375 -27.796875 14.832031 -27.359375 13.21875 -26.484375 C 11.613281 -25.609375 10.328125 -24.28125 9.359375 -22.5 C 8.390625 -20.71875 7.90625 -18.546875 7.90625 -15.984375 C 7.90625 -13.390625 8.378906 -11.203125 9.328125 -9.421875 C 10.273438 -7.640625 11.546875 -6.3125 13.140625 -5.4375 C 14.734375 -4.5625 16.476562 -4.125 18.375 -4.125 Z M 18.375 -4.125 "/></g></g></g><g fill="#ffffff" fill-opacity="1"><g transform="translate(68.620667, 61.027662)"><g><path d="M 6.15625 0.34375 C 5.15625 0.34375 4.304688 -0.00390625 3.609375 -0.703125 C 2.910156 -1.398438 2.5625 -2.25 2.5625 -3.25 C 2.5625 -4.257812 2.910156 -5.113281 3.609375 -5.8125 C 4.304688 -6.507812 5.15625 -6.859375 6.15625 -6.859375 C 7.125 -6.859375 7.945312 -6.507812 8.625 -5.8125 C 9.3125 -5.113281 9.65625 -4.257812 9.65625 -3.25 C 9.65625 -2.25 9.3125 -1.398438 8.625 -0.703125 C 7.945312 -0.00390625 7.125 0.34375 6.15625 0.34375 Z M 6.15625 0.34375 "/></g></g></g><g fill="#ffffff" fill-opacity="1"><g transform="translate(76.698564, 61.027662)"><g><path d="M 9.765625 -25.9375 C 10.847656 -27.832031 12.4375 -29.378906 14.53125 -30.578125 C 16.625 -31.785156 19.007812 -32.390625 21.6875 -32.390625 C 24.550781 -32.390625 27.125 -31.707031 29.40625 -30.34375 C 31.695312 -28.988281 33.5 -27.082031 34.8125 -24.625 C 36.132812 -22.164062 36.796875 -19.304688 36.796875 -16.046875 C 36.796875 -12.828125 36.132812 -9.957031 34.8125 -7.4375 C 33.5 -4.914062 31.691406 -2.957031 29.390625 -1.5625 C 27.085938 -0.175781 24.519531 0.515625 21.6875 0.515625 C 18.9375 0.515625 16.523438 -0.0820312 14.453125 -1.28125 C 12.378906 -2.476562 10.816406 -4.007812 9.765625 -5.875 L 9.765625 0 L 4.484375 0 L 4.484375 -43.03125 L 9.765625 -43.03125 Z M 31.390625 -16.046875 C 31.390625 -18.453125 30.90625 -20.546875 29.9375 -22.328125 C 28.96875 -24.109375 27.660156 -25.460938 26.015625 -26.390625 C 24.367188 -27.328125 22.554688 -27.796875 20.578125 -27.796875 C 18.640625 -27.796875 16.847656 -27.316406 15.203125 -26.359375 C 13.554688 -25.410156 12.238281 -24.035156 11.25 -22.234375 C 10.257812 -20.429688 9.765625 -18.347656 9.765625 -15.984375 C 9.765625 -13.585938 10.257812 -11.488281 11.25 -9.6875 C 12.238281 -7.882812 13.554688 -6.503906 15.203125 -5.546875 C 16.847656 -4.597656 18.640625 -4.125 20.578125 -4.125 C 22.554688 -4.125 24.367188 -4.597656 26.015625 -5.546875 C 27.660156 -6.503906 28.96875 -7.882812 29.9375 -9.6875 C 30.90625 -11.488281 31.390625 -13.609375 31.390625 -16.046875 Z M 31.390625 -16.046875 "/></g></g></g><g fill="#ffffff" fill-opacity="1"><g transform="translate(111.861983, 61.027662)"><g><path d="M 9.765625 -43.03125 L 9.765625 0 L 4.484375 0 L 4.484375 -43.03125 Z M 9.765625 -43.03125 "/></g></g></g><g fill="#ffffff" fill-opacity="1"><g transform="translate(122.032319, 61.027662)"><g><path d="M 32.734375 -31.859375 L 32.734375 0 L 27.4375 0 L 27.4375 -4.703125 C 26.4375 -3.078125 25.035156 -1.804688 23.234375 -0.890625 C 21.429688 0.015625 19.441406 0.46875 17.265625 0.46875 C 14.785156 0.46875 12.554688 -0.0390625 10.578125 -1.0625 C 8.597656 -2.09375 7.035156 -3.632812 5.890625 -5.6875 C 4.753906 -7.75 4.1875 -10.253906 4.1875 -13.203125 L 4.1875 -31.859375 L 9.421875 -31.859375 L 9.421875 -13.890625 C 9.421875 -10.753906 10.210938 -8.34375 11.796875 -6.65625 C 13.390625 -4.96875 15.5625 -4.125 18.3125 -4.125 C 21.144531 -4.125 23.375 -4.992188 25 -6.734375 C 26.625 -8.484375 27.4375 -11.023438 27.4375 -14.359375 L 27.4375 -31.859375 Z M 32.734375 -31.859375 "/></g></g></g><g fill="#ffffff" fill-opacity="1"><g transform="translate(155.103298, 61.027662)"><g><path d="M 32.734375 -31.859375 L 32.734375 0 L 27.4375 0 L 27.4375 -4.703125 C 26.4375 -3.078125 25.035156 -1.804688 23.234375 -0.890625 C 21.429688 0.015625 19.441406 0.46875 17.265625 0.46875 C 14.785156 0.46875 12.554688 -0.0390625 10.578125 -1.0625 C 8.597656 -2.09375 7.035156 -3.632812 5.890625 -5.6875 C 4.753906 -7.75 4.1875 -10.253906 4.1875 -13.203125 L 4.1875 -31.859375 L 9.421875 -31.859375 L 9.421875 -13.890625 C 9.421875 -10.753906 10.210938 -8.34375 11.796875 -6.65625 C 13.390625 -4.96875 15.5625 -4.125 18.3125 -4.125 C 21.144531 -4.125 23.375 -4.992188 25 -6.734375 C 26.625 -8.484375 27.4375 -11.023438 27.4375 -14.359375 L 27.4375 -31.859375 Z M 32.734375 -31.859375 "/></g></g></g><g fill="#ffffff" fill-opacity="1"><g transform="translate(188.174276, 61.027662)"><g><path d="M 33.546875 -17.15625 C 33.546875 -16.144531 33.488281 -15.078125 33.375 -13.953125 L 7.90625 -13.953125 C 8.101562 -10.816406 9.175781 -8.363281 11.125 -6.59375 C 13.082031 -4.832031 15.457031 -3.953125 18.25 -3.953125 C 20.539062 -3.953125 22.453125 -4.484375 23.984375 -5.546875 C 25.515625 -6.617188 26.585938 -8.046875 27.203125 -9.828125 L 32.90625 -9.828125 C 32.050781 -6.765625 30.34375 -4.273438 27.78125 -2.359375 C 25.226562 -0.441406 22.050781 0.515625 18.25 0.515625 C 15.226562 0.515625 12.523438 -0.160156 10.140625 -1.515625 C 7.753906 -2.867188 5.882812 -4.796875 4.53125 -7.296875 C 3.175781 -9.796875 2.5 -12.691406 2.5 -15.984375 C 2.5 -19.285156 3.15625 -22.175781 4.46875 -24.65625 C 5.789062 -27.132812 7.644531 -29.039062 10.03125 -30.375 C 12.414062 -31.71875 15.15625 -32.390625 18.25 -32.390625 C 21.28125 -32.390625 23.957031 -31.726562 26.28125 -30.40625 C 28.601562 -29.09375 30.394531 -27.28125 31.65625 -24.96875 C 32.914062 -22.664062 33.546875 -20.0625 33.546875 -17.15625 Z M 28.078125 -18.25 C 28.078125 -20.269531 27.628906 -22.003906 26.734375 -23.453125 C 25.847656 -24.910156 24.640625 -26.015625 23.109375 -26.765625 C 21.578125 -27.523438 19.882812 -27.90625 18.03125 -27.90625 C 15.351562 -27.90625 13.070312 -27.050781 11.1875 -25.34375 C 9.3125 -23.644531 8.238281 -21.28125 7.96875 -18.25 Z M 28.078125 -18.25 "/></g></g></g></g></g></svg>